<svg xmlns="http://www.w3.org/2000/svg" viewBox="0 0 120 120" role="img" aria-label="The Threshold"><defs><linearGradient id="g" x1="60" y1="22" x2="60" y2="98" gradientUnits="userSpaceOnUse"><stop offset="0" stop-color="#D9BE68"/><stop offset="1" stop-color="#BE9C3F"/></linearGradient></defs><rect width="120" height="120" rx="26" fill="#1A1A2E"/><path fill="url(#g)" fill-rule="evenodd" d="M30 98 L30 78 L36 78 L36 52 Q36 38 47 28 Q54 21.4 60 21.4 Q66 21.4 73 28 Q84 38 84 52 L84 78 L90 78 L90 98 L74 98 L74 52 Q74 44 67.5 38.5 Q63.5 35 60 35 Q56.5 35 52.5 38.5 Q46 44 46 52 L46 98 Z"/><circle cx="60" cy="89" r="6.4" fill="#F2DE9A"/></svg>