<svg xmlns="http://www.w3.org/2000/svg" viewBox="0 0 120 120" width="120" height="120" role="img" aria-label="The Crown — a stepped tower crown">
  <defs>
    <linearGradient id="cg" x1="60" y1="31" x2="60" y2="91" gradientUnits="userSpaceOnUse">
      <stop offset="0" stop-color="#DCC070"/>
      <stop offset="1" stop-color="#BB973A"/>
    </linearGradient>
  </defs>
  <rect width="120" height="120" rx="26" fill="#1A1A2E"/>
  <path fill="url(#cg)" fill-rule="evenodd" d="M28 88 L28 70 L41 70 L41 55 L48 55 L48 39 Q48 35.5 51.5 35.5 L68.5 35.5 Q72 35.5 72 39 L72 55 L79 55 L79 70 L92 70 L92 88 Q92 90 90 90 L68 90 L68 66 Q68 51 60 51 Q52 51 52 66 L52 90 L30 90 Q28 90 28 88 Z"/>
</svg>