<svg xmlns="http://www.w3.org/2000/svg" viewBox="0 0 120 120" width="120" height="120" role="img" aria-label="The Apex">
  <defs>
    <linearGradient id="ax" x1="60" y1="22" x2="60" y2="98" gradientUnits="userSpaceOnUse">
      <stop offset="0" stop-color="#DBC06D"/>
      <stop offset="1" stop-color="#BB9A3F"/>
    </linearGradient>
  </defs>
  <rect width="120" height="120" rx="27" fill="#1A1A2E"/>
  <path d="M60 23.5 C61.9 23.5 63.6 24.6 64.5 26.3 L93.7 81.2 C95 83.6 93.2 86.5 90.5 86.5 L74.6 86.5 C73 86.5 71.5 85.6 70.8 84.1 L61 64.6 C60.6 63.8 59.4 63.8 59 64.6 L49.2 84.1 C48.5 85.6 47 86.5 45.4 86.5 L29.5 86.5 C26.8 86.5 25 83.6 26.3 81.2 L55.5 26.3 C56.4 24.6 58.1 23.5 60 23.5 Z" fill="url(#ax)"/>
</svg>