<svg xmlns="http://www.w3.org/2000/svg" viewBox="0 0 120 120" width="120" height="120">
  <defs>
    <linearGradient id="g" x1="0" y1="0" x2="0" y2="1">
      <stop offset="0" stop-color="#D7B95F"/>
      <stop offset="1" stop-color="#BE9C42"/>
    </linearGradient>
  </defs>
  <rect width="120" height="120" rx="26" fill="#1A1A2E"/>
  <path d="M28 96 L28 42 Q28 26 44 26 L57 26 L57 96 Q57 98 55 98 L30 98 Q28 98 28 96 Z" fill="url(#g)"/>
  <path d="M92 96 L92 42 Q92 26 76 26 L63 26 L63 96 Q63 98 65 98 L90 98 Q92 98 92 96 Z" fill="url(#g)"/>
  <path d="M58.5 17 Q60 14 61.5 17 L61.5 100 Q60 102 58.5 100 Z" fill="#F5F1E8" opacity="0.92"/>
</svg>