<svg xmlns="http://www.w3.org/2000/svg" viewBox="0 0 120 120"><defs><linearGradient id="g" x1="0" y1="0" x2="0" y2="1"><stop offset="0" stop-color="#D8B964"/><stop offset="1" stop-color="#C2A047"/></linearGradient></defs><rect width="120" height="120" rx="26" fill="#1A1A2E"/><path fill="url(#g)" fill-rule="evenodd" d="M47.4 30.4 Q47.7 29 49.2 29 L70.8 29 Q72.3 29 72.6 30.4 L85.8 81.8 Q86.5 84.6 83.6 84.6 L36.4 84.6 Q33.5 84.6 34.2 81.8 L47.4 30.4 Z M60 49.5 Q58.5 49.5 57.7 50.8 L47.7 67.8 Q47 69 47 70.4 L47 78.5 Q47 80 48.5 80 L71.5 80 Q73 80 73 78.5 L73 70.4 Q73 69 72.3 67.8 L62.3 50.8 Q61.5 49.5 60 49.5 Z"/></svg>