<svg xmlns="http://www.w3.org/2000/svg" viewBox="0 0 120 120" role="img" aria-label="The Pillar"><defs><linearGradient id="col" x1="60" y1="30" x2="60" y2="92" gradientUnits="userSpaceOnUse"><stop offset="0" stop-color="#D6B962"/><stop offset="1" stop-color="#C9A84C"/></linearGradient></defs><rect width="120" height="120" rx="26" fill="#1A1A2E"/><g fill="url(#col)"><path d="M42 35.4 Q42 32 45.4 31.6 L74.6 31.6 Q78 32 78 35.4 L78 40.6 Q78 44 74.6 44 L45.4 44 Q42 44 42 40.6 Z"/><path d="M46.4 50 Q46 47 49 46.6 L71 46.6 Q74 47 73.6 50 L70 86 Q69.6 89 66.6 89 L53.4 89 Q50.4 89 50 86 Z"/></g><path d="M60 56 Q57.6 56 57.6 58.6 L57.6 76.4 Q57.6 79 60 79 Q62.4 79 62.4 76.4 L62.4 58.6 Q62.4 56 60 56 Z" fill="#1A1A2E"/></svg>