<svg xmlns="http://www.w3.org/2000/svg" viewBox="0 0 120 120" width="240" height="240">
  <defs>
    <linearGradient id="g" x1="60" y1="22" x2="60" y2="98" gradientUnits="userSpaceOnUse">
      <stop offset="0" stop-color="#D8BC6A"/>
      <stop offset="1" stop-color="#C5A446"/>
    </linearGradient>
  </defs>
  <rect width="120" height="120" rx="26" fill="#1A1A2E"/>
  <path fill="url(#g)" fill-rule="evenodd"
    d="M60 25.5 A34.5 34.5 0 1 1 60 94.5 A34.5 34.5 0 1 1 60 25.5 Z
       M60 35.5 A24.5 24.5 0 1 0 60 84.5 A24.5 24.5 0 1 0 60 35.5 Z"/>
  <path fill="url(#g)"
    d="M53.0 46.8 C53.2 45.6 54.2 44.7 55.4 44.7 L64.6 44.7
       C65.8 44.7 66.8 45.6 67.0 46.8 L71.6 69.8
       C72.0 71.8 70.5 73.7 68.4 73.7 L51.6 73.7
       C49.5 73.7 48.0 71.8 48.4 69.8 Z"/>
  <path fill="#1A1A2E"
    d="M55.6 73.7 L55.6 63.7 C55.6 61.3 57.6 59.3 60 59.3
       C62.4 59.3 64.4 61.3 64.4 63.7 L64.4 73.7 Z"/>
</svg>