<svg xmlns="http://www.w3.org/2000/svg" viewBox="0 0 120 120"><defs><linearGradient id="g" x1="0" y1="0" x2="0" y2="1"><stop offset="0" stop-color="#D9BB60"/><stop offset="1" stop-color="#B5973F"/></linearGradient><radialGradient id="ap" cx="50%" cy="50%" r="50%"><stop offset="0" stop-color="#FBEFC0"/><stop offset="1" stop-color="#FBEFC0" stop-opacity="0"/></radialGradient><clipPath id="cp"><path d="M58.6 31 L60 25.6 L61.4 31 C68 50 79 71 91.4 89.4 q1.2 1.9-1 1.9 H66.6 q-1.7 0-1.7-1.7 V61 q0-3.6-4.9-3.6 t-4.9 3.6 V89.6 q0 1.7-1.7 1.7 H29.6 q-2.2 0-1-1.9 C41 71 52 50 58.6 31 Z"/></clipPath></defs><rect width="120" height="120" rx="26" fill="#1A1A2E"/><path fill="url(#g)" d="M58.6 31 L60 25.6 L61.4 31 C68 50 79 71 91.4 89.4 q1.2 1.9-1 1.9 H66.6 q-1.7 0-1.7-1.7 V61 q0-3.6-4.9-3.6 t-4.9 3.6 V89.6 q0 1.7-1.7 1.7 H29.6 q-2.2 0-1-1.9 C41 71 52 50 58.6 31 Z"/><g clip-path="url(#cp)"><ellipse cx="60" cy="40" rx="12" ry="20" fill="url(#ap)" opacity=".9"/></g></svg>