<svg viewBox="0 0 120 120" role="img" aria-label="The Keystone" xmlns="http://www.w3.org/2000/svg"><rect width="120" height="120" rx="26" fill="#1A1A2E"/><defs><linearGradient id="kF" x1="0" y1="34" x2="0" y2="92" gradientUnits="userSpaceOnUse"><stop offset="0" stop-color="#D8BE6A"/><stop offset="1" stop-color="#B08A33"/></linearGradient><linearGradient id="kP" x1="60" y1="92" x2="60" y2="52" gradientUnits="userSpaceOnUse"><stop offset="0" stop-color="#F3E2A8" stop-opacity="0"/><stop offset=".55" stop-color="#F6E6B0" stop-opacity=".75"/><stop offset="1" stop-color="#FCEFC4"/></linearGradient></defs><path fill-rule="evenodd" fill="url(#kF)" d="M44.5 33.5H75.5L86.5 92H33.5ZM60 53.5C53 53.5 49.5 60 48 92H72C70.5 60 67 53.5 60 53.5Z"/><path fill="none" stroke="#F0E4B4" stroke-opacity=".55" stroke-width="1.1" stroke-linejoin="round" d="M44.5 33.5H75.5M44.5 33.5L33.5 92"/><path fill="none" stroke="#6E531C" stroke-opacity=".7" stroke-width="1.1" stroke-linejoin="round" d="M75.5 33.5L86.5 92H33.5"/><path fill="none" stroke="#7A5E22" stroke-opacity=".6" stroke-width=".7" stroke-linejoin="round" d="M47 38.5H73L81.3 87.5H38.7Z"/><path fill="url(#kP)" d="M60 55C54 55 50.7 61 49.3 92H70.7C69.3 61 66 55 60 55Z" opacity=".92"/></svg>