<svg viewBox="0 0 120 120" xmlns="http://www.w3.org/2000/svg" role="img" aria-labelledby="kt kd"><title id="kt">The Keystone — The Tower</title><desc id="kd">A flat matte-gold capstone with an ascending lit passage cut into its base.</desc><rect width="120" height="120" rx="26" fill="#1A1A2E"/><path fill="#C9A84C" fill-rule="evenodd" d="M46.5 28.2 Q47 26.4 48.9 26.4 L71.1 26.4 Q73 26.4 73.5 28.2 L87.4 80.6 Q88.4 84.2 84.6 84.2 L35.4 84.2 Q31.6 84.2 32.6 80.6 Z M60 45.2 Q57.7 45.2 56.5 47.2 L45.9 65.7 Q45 67.3 45 69.2 L45 75.9 Q45 78 47.1 78 L72.9 78 Q75 78 75 75.9 L75 69.2 Q75 67.3 74.1 65.7 L63.5 47.2 Q62.3 45.2 60 45.2 Z"/></svg>