<svg xmlns="http://www.w3.org/2000/svg" viewBox="0 0 120 120" role="img" aria-label="The Tower keystone"><rect width="120" height="120" rx="26" fill="#1A1A2E"/><path d="M44.5 31 75.5 31 59 30.1Z" fill="#EAD583"/><path d="M44.5 31 60 31 49.5 91 27 91Z" fill="#A07E2C"/><path d="M75.5 31 60 31 70.5 91 93 91Z" fill="#86692A"/><path d="M52 31 68 31 71 91 49 91Z" fill="#D7B856"/><path d="M49.5 91 49.5 64.5Q60 46 70.5 64.5L70.5 91 66.6 91Q66.6 66.5 60 54.5Q53.4 66.5 53.4 91Z" fill="#16162A"/><path d="M60 56Q64.8 66 64.8 91L55.2 91Q55.2 66 60 56Z" fill="#F6E8AC"/><path d="M60 60Q62.6 68 62.6 91L57.4 91Q57.4 68 60 60Z" fill="#FBF3CF"/><path d="M44.5 31 75.5 31 59 30.1Z" fill="#F5F1E8" opacity="0.4"/></svg>