<svg xmlns="http://www.w3.org/2000/svg" viewBox="0 0 120 120" role="img" aria-label="The Keystone"><defs><linearGradient id="kf" x1="60" y1="27" x2="60" y2="93" gradientUnits="userSpaceOnUse"><stop offset="0" stop-color="#D8B964"/><stop offset=".12" stop-color="#CDAE57"/><stop offset="1" stop-color="#C2A047"/></linearGradient><radialGradient id="kl" cx="60" cy="86" r="19" gradientUnits="userSpaceOnUse"><stop offset="0" stop-color="#F5F1E8"/><stop offset=".5" stop-color="#E9CF82"/><stop offset="1" stop-color="#1A1A2E"/></radialGradient></defs><rect width="120" height="120" rx="26" fill="#1A1A2E"/><path fill="url(#kf)" fill-rule="evenodd" d="M43.6 33.2C43.9 31.4 45.4 30 47.2 30L72.8 30C74.6 30 76.1 31.4 76.4 33.2L88.4 84.6C88.9 86.9 87.2 89 84.9 89L35.1 89C32.8 89 31.1 86.9 31.6 84.6L43.6 33.2ZM60 50C53.6 56 49.5 64 49 72.6L49 89L71 89L71 72.6C70.5 64 66.4 56 60 50Z"/><path fill="url(#kl)" d="M49 78C52.6 76 56.2 75 60 75C63.8 75 67.4 76 71 78L71 89L49 89Z"/></svg>