<svg xmlns="http://www.w3.org/2000/svg" viewBox="0 0 120 120" width="120" height="120" role="img" aria-label="The Keystone — a glass capstone with an ascending lit passage"><defs><linearGradient id="kgGlass" x1="0" y1="0" x2="0" y2="1"><stop offset="0" stop-color="#3a3f63" stop-opacity=".55"/><stop offset="1" stop-color="#1f2340" stop-opacity=".35"/></linearGradient><linearGradient id="kgEdge" x1="0" y1="0" x2="1" y2="1"><stop offset="0" stop-color="#dfe6ff"/><stop offset=".5" stop-color="#9aa3d4" stop-opacity=".75"/><stop offset="1" stop-color="#C9A84C"/></linearGradient><radialGradient id="kgGlow" cx=".5" cy="1" r=".9"><stop offset="0" stop-color="#FFE6A8"/><stop offset=".55" stop-color="#C9A84C"/><stop offset="1" stop-color="#C9A84C" stop-opacity="0"/></radialGradient></defs><rect width="120" height="120" rx="26" fill="#1A1A2E"/><path d="M34 86 42 36Q43 31 48 31H72Q77 31 78 36L86 86Z" fill="url(#kgGlass)" stroke="url(#kgEdge)" stroke-width="2.1" stroke-linejoin="round"/><path d="M44 38H76l-1.5 10h-29Z" fill="#cfd8ff" opacity=".12"/><ellipse cx="60" cy="80" rx="14" ry="20" fill="url(#kgGlow)" opacity=".85"/><path d="M50 86V64Q50 53 60 47 70 53 70 64v22Z" fill="#1A1A2E"/><path d="M54 86V65Q54 57 60 53 66 57 66 65v21Z" fill="url(#kgGlow)" opacity=".9"/></svg>