<svg xmlns="http://www.w3.org/2000/svg" viewBox="0 0 120 120" width="120" height="120" role="img" aria-label="The Tower keystone"><title>The Tower</title><rect width="120" height="120" rx="26" fill="#1A1A2E"/><path fill="#C9A84C" fill-rule="evenodd" d="M43.7 25.6Q44.1 23.4 46.4 23.4L73.6 23.4Q75.9 23.4 76.3 25.6L95.9 91.2Q96.6 93.6 94.1 93.6L70.8 93.6Q70.8 73 70.6 70.4Q69.6 56.4 60 56.4Q50.4 56.4 49.4 70.4Q49.2 73 49.2 93.6L25.9 93.6Q23.4 93.6 24.1 91.2Z"/><path fill="#F5F1E8" fill-opacity=".92" d="M60 63.4Q65.2 64 65.2 75.6L65.2 93.6L54.8 93.6L54.8 75.6Q54.8 64 60 63.4Z"/></svg>