<svg xmlns="http://www.w3.org/2000/svg" viewBox="0 0 120 120" width="120" height="120"><defs></defs><rect width="120" height="120" rx="26" fill="#1A1A2E"/><path fill="#C9A84C" fill-rule="evenodd" d="M30 95 L30 60 Q30 58 32 58 L40 58 L40 34 Q40 32 42 32 L78 32 Q80 32 80 34 L80 58 L88 58 Q90 58 90 60 L90 95 Q90 96.5 88.5 96.5 L66 96.5 L66 74 Q66 62 60 62 Q54 62 54 74 L54 96.5 L31.5 96.5 Q30 96.5 30 95 Z"/><path fill="#F5F1E8" fill-opacity="0.85" d="M60 66 Q64.5 66.5 64.5 76 L64.5 96.5 L55.5 96.5 L55.5 76 Q55.5 66.5 60 66 Z"/></svg>