<svg xmlns="http://www.w3.org/2000/svg" viewBox="0 0 120 120" width="120" height="120"><defs></defs><rect width="120" height="120" rx="26" fill="#1A1A2E"/><path fill="#C9A84C" fill-rule="evenodd" d="M32 96 L32 70 L44 70 L44 50 L50 50 L50 33 Q50 31.5 51.5 31.5 L68.5 31.5 Q70 31.5 70 33 L70 50 L76 50 L76 70 L88 70 L88 96 L66 96 L66 75 Q66 63 60 63 Q54 63 54 75 L54 96 L32 96 Z"/><path fill="#F5F1E8" fill-opacity="0.85" d="M60 67 Q64.5 67.5 64.5 77 L64.5 96 L55.5 96 L55.5 77 Q55.5 67.5 60 67 Z"/></svg>